<?xml version="1.0" encoding="UTF-8"?>
<svg xmlns="http://www.w3.org/2000/svg" xmlns:xlink="http://www.w3.org/1999/xlink"
     width="500" height="360" viewBox="-125.0 -90.0 250 180">
<defs>
</defs>
<circle cx="-50" cy="0" r="20" fill="none" stroke="black" stroke-width="2" />
<text x="-59" y="6" font-size="17" fill="black" font-family="Times New Roman">+9</text>
<path d="M-17.0444504226559,15.529142706151244 A60,60,0,0,0,-15.47059550104671,7.499999999999998" stroke="black" stroke-width="2" fill="none" />
<path d="M-15.47059550104671,-7.499999999999998 A60,60,0,0,0,-17.0444504226559,-15.529142706151244" stroke="black" stroke-width="2" fill="none" />
<path d="M-2.555563028319881,19.411428382689056 A75,75,0,0,0,-0.37594221700349806,7.5" stroke="black" stroke-width="2" fill="none" />
<path d="M-0.37594221700349806,-7.5 A75,75,0,0,0,-2.555563028319881,-19.411428382689056" stroke="black" stroke-width="2" fill="none" />
<path d="M11.933324366016151,23.293714059226865 A90,90,0,0,0,14.686955573260477,7.5" stroke="black" stroke-width="2" fill="none" />
<path d="M14.686955573260477,-7.5 A90,90,0,0,0,11.933324366016151,-23.293714059226865" stroke="black" stroke-width="2" fill="none" />
<path d="M26.42221176035217,27.175999735764677 A105,105,0,0,0,29.731800328267056,7.5" stroke="black" stroke-width="2" fill="none" />
<path d="M29.731800328267056,-7.5 A105,105,0,0,0,26.42221176035217,-27.175999735764677" stroke="black" stroke-width="2" fill="none" />
<path d="M40.9110991546882,31.05828541230249 A120,120,0,0,0,44.765395670034835,7.499999999999999" stroke="black" stroke-width="2" fill="none" />
<path d="M44.765395670034835,-7.499999999999999 A120,120,0,0,0,40.9110991546882,-31.05828541230249" stroke="black" stroke-width="2" fill="none" />
<path d="M55.39998654902422,34.9405710888403 A135,135,0,0,0,59.791505667085715,7.499999999999998" stroke="black" stroke-width="2" fill="none" />
<path d="M59.791505667085715,-7.499999999999998 A135,135,0,0,0,55.39998654902422,-34.9405710888403" stroke="black" stroke-width="2" fill="none" />
<path d="M69.88887394336024,38.82285676537811 A150,150,0,0,0,74.81238266578634,7.500000000000002" stroke="black" stroke-width="2" fill="none" />
<path d="M74.81238266578634,-7.500000000000002 A150,150,0,0,0,69.88887394336024,-38.82285676537811" stroke="black" stroke-width="2" fill="none" />
<text x="-19" y="5" font-size="15" fill="black" font-family="Times New Roman">2</text>
<text x="-4" y="5" font-size="15" fill="black" font-family="Times New Roman">8</text>
<text x="8" y="5" font-size="15" fill="black" font-family="Times New Roman">18</text>
<text x="23" y="5" font-size="15" fill="black" font-family="Times New Roman">18</text>
<text x="38" y="5" font-size="15" fill="black" font-family="Times New Roman">18</text>
<text x="56" y="5" font-size="15" fill="black" font-family="Times New Roman">8</text>
<text x="71" y="5" font-size="15" fill="black" font-family="Times New Roman">8</text>
</svg>