<?xml version="1.0" encoding="UTF-8"?>
<svg xmlns="http://www.w3.org/2000/svg" xmlns:xlink="http://www.w3.org/1999/xlink"
     width="500" height="360" viewBox="-125.0 -90.0 250 180">
<defs>
</defs>
<circle cx="-50" cy="0" r="20" fill="none" stroke="black" stroke-width="2" />
<text x="-63" y="6" font-size="17" fill="black" font-family="Times New Roman">+12</text>
<path d="M-17.0444504226559,15.529142706151244 A60,60,0,0,0,-15.47059550104671,7.499999999999998" stroke="black" stroke-width="2" fill="none" />
<path d="M-15.47059550104671,-7.499999999999998 A60,60,0,0,0,-17.0444504226559,-15.529142706151244" stroke="black" stroke-width="2" fill="none" />
<path d="M-2.555563028319881,19.411428382689056 A75,75,0,0,0,-0.37594221700349806,7.5" stroke="black" stroke-width="2" fill="none" />
<path d="M-0.37594221700349806,-7.5 A75,75,0,0,0,-2.555563028319881,-19.411428382689056" stroke="black" stroke-width="2" fill="none" />
<path d="M11.933324366016151,23.293714059226865 A90,90,0,0,0,14.686955573260477,7.5" stroke="black" stroke-width="2" fill="none" />
<path d="M14.686955573260477,-7.5 A90,90,0,0,0,11.933324366016151,-23.293714059226865" stroke="black" stroke-width="2" fill="none" />
<text x="-19" y="5" font-size="15" fill="black" font-family="Times New Roman">2</text>
<text x="-4" y="5" font-size="15" fill="black" font-family="Times New Roman">8</text>
<text x="11" y="5" font-size="15" fill="black" font-family="Times New Roman">2</text>
</svg>